<?xml version="1.0" encoding="UTF-8" standalone="no"?>
<!DOCTYPE svg PUBLIC "-//W3C//DTD SVG 1.1//EN" "http://www.w3.org/Graphics/SVG/1.1/DTD/svg11.dtd">
<svg width="100%" height="100%" viewBox="0 0 4961 3508" version="1.1" xmlns="http://www.w3.org/2000/svg" xmlns:xlink="http://www.w3.org/1999/xlink" xml:space="preserve" xmlns:serif="http://www.serif.com/" style="fill-rule:evenodd;clip-rule:evenodd;stroke-linecap:round;stroke-linejoin:round;stroke-miterlimit:1.5;">
    <g transform="matrix(0.982184,0,0,0.982184,53.269031,87.143827)">
        <g transform="matrix(1,0,0,1,280.505753,-142.487553)">
            <path d="M4073.344,1646.591L4195.509,1096.78L4460.836,1094.391L4284.928,1896.425L2836.479,1893.268L3011.503,1096.528L3278.291,1096.774L3159.502,1646.441L3709.32,1646.907L3833.005,1094.848L4099.879,1095.724L3984.23,1646.463L4073.344,1646.591Z" style="fill:none;stroke:rgb(97,57,124);stroke-width:11.88px;"/>
        </g>
        <g transform="matrix(1,0,0,1,586.402665,30.806206)">
            <path d="M3823.336,2497.69L3886.472,2184.846L3820.072,2184.846L3746.097,2496.045L3402.964,2498.606L3510.248,2010.754L4220.146,2011.752L4106.11,2497.69L3823.336,2497.69Z" style="fill:none;stroke:rgb(97,57,124);stroke-width:11.88px;"/>
        </g>
        <g transform="matrix(0.220771,0.975326,-0.975326,0.220771,5771.769041,-3867.551242)">
            <path d="M3823.336,2497.69L3886.472,2184.846L3820.072,2184.846L3746.097,2496.045L3402.964,2498.606L3510.248,2010.754L4220.146,2011.752L4106.11,2497.69L3823.336,2497.69Z" style="fill:none;stroke:rgb(97,57,124);stroke-width:11.88px;"/>
        </g>
        <g transform="matrix(1,0,0,1,-165.060698,28.534724)">
            <path d="M3236.454,2655.031L2823.703,2654.673L2663.487,3364.564L2325.639,3364.564L2475.068,2722.964L2619.818,2722.791L2633.567,2654.337L2491.349,2654.432L2630.18,2013.94L3380.136,2013.026L3236.454,2655.031Z" style="fill:none;stroke:rgb(97,57,124);stroke-width:11.88px;"/>
        </g>
        <g transform="matrix(1.115734,0,0,1.115734,-519.553664,-414.922681)">
            <g transform="matrix(1,0,0,1,-1977.779976,868.291896)">
                <path d="M3043.581,2063.995L2949.488,2517.858L2751.801,2519.766L2885.935,1864.299L3994.818,1866.889L3861.356,2518.038L3662.523,2517.842L3754.01,2064.127L3323.94,2063.737L3228.684,2519.419L3029.749,2518.719L3118.819,2064.111L3043.581,2063.995ZM3201.361,1996.278L3112.26,2451.048L3173.502,2451.264L3268.727,1995.726L3837.026,1996.242L3828.827,2036.901L3745.538,2449.964L3805.924,2450.023L3911.555,1934.655L2941.37,1932.388L2835.242,2450.997L2894.062,2450.43L2988.282,1995.95L3201.361,1996.278Z" style="fill:none;stroke:rgb(97,57,124);stroke-width:10.65px;"/>
            </g>
            <g transform="matrix(1,0,0,1,-2045.533469,565.330935)">
                <path d="M3296.774,1537.684L3260.268,1750.47L3318.36,1750.47L3363.219,1539.023L3621.123,1536.96L3539.841,1933.1L2999.812,1932.286L3086.213,1537.684L3296.774,1537.684ZM3140.903,1605.644L3084.235,1864.453L3484.427,1865.056L3537.665,1605.59L3418.367,1606.544L3373.415,1818.43L3179.656,1818.43L3216.162,1605.644L3140.903,1605.644Z" style="fill:none;stroke:rgb(97,57,124);stroke-width:10.65px;"/>
            </g>
            <g transform="matrix(1,0,0,1,-1335.594378,-20.512792)">
                <path d="M3269.27,1995.532L3587.148,1995.827L3710.539,1409.856L3964.051,1409.856L3850.386,1932.927L3775.185,1933.07L3763.375,1996.09L3836.491,1996.012L3730.883,2518.198L3159.974,2518.944L3269.27,1995.532ZM3243.614,2450.874L3675.277,2450.31L3753.392,2064.061L3681.479,2064.139L3718.759,1865.216L3795.585,1865.071L3879.737,1477.816L3765.679,1477.816L3642.277,2063.839L3324.494,2063.543L3243.614,2450.874Z" style="fill:none;stroke:rgb(97,57,124);stroke-width:10.65px;"/>
            </g>
            <g transform="matrix(0.22817,1.10102,-1.212913,0.251358,4340.790076,-3669.038086)">
                <path d="M3271.857,2002.082L3589.727,2002.377L3713.118,1416.403L3958.658,1416.403L3847.258,1929.048L3766.254,1920.878L3751.141,1990.693L3829.671,2010.234L3728.264,2511.654L3165.298,2512.389L3271.857,2002.082ZM3238.291,2457.429L3677.896,2456.855L3760.211,2049.839L3681.007,2030.13L3717.669,1860.776L3798.713,1868.95L3885.13,1471.268L3763.1,1471.268L3639.698,2057.289L3321.907,2056.993L3238.291,2457.429Z" style="fill:none;stroke:rgb(97,57,124);stroke-width:9px;"/>
            </g>
            <g transform="matrix(1,0,0,1,-1609.931763,-622.858806)">
                <path d="M2611.831,2480.456L2611.885,2480.167L2503.672,2480.245L2580.473,2100.495L3005.462,2099.939L2925.944,2480.748L2611.831,2480.456Z" style="fill:none;stroke:rgb(97,57,124);stroke-width:10.65px;"/>
            </g>
            <g transform="matrix(-0.221858,0.975079,-0.975079,-0.221858,5809.333026,-593.378816)">
                <path d="M2611.831,2480.456L2611.885,2480.167L2503.672,2480.245L2580.473,2100.495L3005.462,2099.939L2925.944,2480.748L2611.831,2480.456Z" style="fill:none;stroke:rgb(97,57,124);stroke-width:10.65px;"/>
            </g>
            <g transform="matrix(1,0,0,1,-1790.198787,-640.61146)">
                <path d="M2564.963,2685.617L2484.763,3066.478L2377.389,3066.478L2460.122,2685.751L2564.963,2685.617Z" style="fill:none;stroke:rgb(97,57,124);stroke-width:10.65px;"/>
            </g>
            <g transform="matrix(2.0207,0.178776,0.132987,-1.503151,-3700.854716,4660.543059)">
                <path d="M2564.963,2685.617L2484.763,3066.478L2377.389,3066.478L2460.122,2685.751L2564.963,2685.617Z" style="fill:none;stroke:rgb(97,57,124);stroke-width:5.95px;"/>
            </g>
            <g transform="matrix(1.934707,0,0,1.934707,-865.116547,-4404.957241)">
                <path d="M2564.963,2685.617L2484.763,3066.478L2377.389,3066.478L2460.122,2685.751L2564.963,2685.617Z" style="fill:none;stroke:rgb(97,57,124);stroke-width:5.5px;"/>
            </g>
            <g transform="matrix(1,0,0,1,-1609.931763,-622.858806)">
                <path d="M3374.947,2098.212L3319.093,2350.049L3206.157,2350.952L3258.051,2098.036L3374.947,2098.212Z" style="fill:none;stroke:rgb(97,57,124);stroke-width:10.65px;"/>
            </g>
            <g transform="matrix(0.333141,1.685618,-1.685618,0.333141,6929.70808,-3412.909753)">
                <path d="M3374.947,2098.212L3319.093,2350.049L3206.157,2350.952L3258.051,2098.036L3374.947,2098.212Z" style="fill:none;stroke:rgb(97,57,124);stroke-width:6.2px;"/>
            </g>
            <g transform="matrix(1,0,0,1,-1609.931763,-622.858806)">
                <path d="M3575.787,2098.515L3651.541,2098.629L3596.298,2350.93L3528.258,2350.93L3575.787,2098.515Z" style="fill:none;stroke:rgb(97,57,124);stroke-width:10.65px;"/>
            </g>
            <g transform="matrix(0.619674,3.135409,-3.135409,0.619674,8923.315306,-9335.662459)">
                <path d="M3575.787,2098.515L3651.541,2098.629L3596.298,2350.93L3528.258,2350.93L3575.787,2098.515Z" style="fill:none;stroke:rgb(97,57,124);stroke-width:3.33px;"/>
            </g>
            <g transform="matrix(0.215825,0.976432,-0.976432,0.215825,1912.091834,-2717.831222)">
                <path d="M3471.91,1797.107L3691.595,1797.445L3785.821,1342.936L3837.986,1342.432L3733.2,1854.482L2769.662,1852.231L2873.96,1343.37L2927.71,1343.423L2836.222,1797.145L3411.146,1797.667L3506.369,1342.136L3561.012,1342.329L3471.91,1797.107Z" style="fill:none;stroke:rgb(97,57,124);stroke-width:10.65px;"/>
            </g>
        </g>
        <g transform="matrix(1,0,0,1,197.848871,0)">
            <path d="M3071.654,2968.838L3029.065,3393.988L2719.519,3394.055L2797.405,2806.547L3195.743,2705.014L3322.021,2079.229L3651.682,2079.229L3530.373,2680.389L3594.082,2977.918L3071.654,2968.838Z" style="fill:none;stroke:rgb(97,57,124);stroke-width:11.88px;"/>
        </g>
    </g>
</svg>
