<?xml version="1.0" encoding="UTF-8" standalone="no"?>
<!DOCTYPE svg PUBLIC "-//W3C//DTD SVG 1.1//EN" "http://www.w3.org/Graphics/SVG/1.1/DTD/svg11.dtd">
<svg width="100%" height="100%" viewBox="0 0 2888 1073" version="1.1" xmlns="http://www.w3.org/2000/svg" xmlns:xlink="http://www.w3.org/1999/xlink" xml:space="preserve" xmlns:serif="http://www.serif.com/" style="fill-rule:evenodd;clip-rule:evenodd;stroke-linejoin:round;stroke-miterlimit:2;">
    <g transform="matrix(1,0,0,1,-56.441889,-963.830218)">
        <g transform="matrix(3.062047,0,-0.076551,3.062047,-1804.052261,-2122.327318)">
            <path d="M1196.85,1259.843L1165.354,1259.843L1174.803,1165.354L1143.307,1165.354L1146.457,1133.858L1177.953,1133.858L1190.551,1007.874L1222.047,1007.874L1196.85,1259.843Z" style="fill:rgb(97,57,124);"/>
            <path d="M976.378,1259.843L944.882,1259.843L970.079,1007.874L1127.559,1007.874L1111.811,1165.354L1048.819,1165.354L1039.37,1259.843L1007.874,1259.843L1017.323,1165.354L985.827,1165.354L976.378,1259.843ZM998.425,1039.37L988.976,1133.858L1083.465,1133.858L1092.913,1039.37L1061.417,1039.37L1055.118,1102.362L1023.622,1102.362L1029.921,1039.37L998.425,1039.37Z" style="fill:rgb(97,57,124);"/>
        </g>
        <g transform="matrix(3.062047,0,0,3.062047,-2829.407864,-1828.950075)">
            <g>
                <g transform="matrix(1,0,0,1,944.882,1259.843)">
                    <path d="M12.121,-46.059L12.121,2.424L-2.424,2.424L-2.424,-60.604L60.604,-60.604L60.604,-21.818L16.969,-21.818L16.969,-36.363L46.059,-36.363L46.059,-46.059L12.121,-46.059Z" style="fill:white;"/>
                </g>
                <g transform="matrix(1,0,0,1,1039.171,1259.843)">
                    <g>
                        <path d="M46.059,-12.121L46.059,-60.604L60.604,-60.604L60.604,2.424L-2.424,2.424L-2.424,-60.604L12.121,-60.604L12.121,-12.121L46.059,-12.121Z" style="fill:white;"/>
                        <g transform="matrix(1,0,0,1,94.289,0)">
                            <path d="M60.798,2.424L42.471,2.424L22.302,-21.818L16.969,-21.818L16.969,-36.363L46.059,-36.363L46.059,-46.059L12.121,-46.059L12.121,2.424L-2.424,2.424L-2.424,-60.604L60.604,-60.604L60.604,-21.818L41.696,-21.818L60.798,2.424Z" style="fill:white;"/>
                            <path d="M106.41,-46.059L106.41,2.424L91.865,2.424L91.865,-60.604L154.893,-60.604L154.893,-21.818L111.258,-21.818L111.258,-36.363L140.348,-36.363L140.348,-46.059L106.41,-46.059Z" style="fill:white;"/>
                            <path d="M249.182,-12.121L249.182,2.424L186.154,2.424L186.154,-60.604L200.699,-60.604L200.699,-12.121L249.182,-12.121Z" style="fill:white;"/>
                            <path d="M343.472,2.424L280.444,2.424L280.444,-60.604L343.472,-60.604L343.472,-46.059L294.989,-46.059L294.989,-36.363L343.472,-36.363L343.472,-21.818L294.989,-21.818L294.989,-12.121L343.472,-12.121L343.472,2.424Z" style="fill:white;"/>
                            <path d="M469.001,2.424L454.456,2.424L454.456,-21.818L420.518,-21.818L420.518,2.424L405.973,2.424L405.973,-60.604L420.518,-60.604L420.518,-36.363L454.456,-36.363L454.456,-60.604L469.001,-60.604L469.001,2.424Z" style="fill:white;"/>
                            <path d="M563.29,2.424L500.262,2.424L500.262,-60.604L563.29,-60.604L563.29,-46.059L514.807,-46.059L514.807,-36.363L563.29,-36.363L563.29,-21.818L514.807,-21.818L514.807,-12.121L563.29,-12.121L563.29,2.424Z" style="fill:white;"/>
                            <path d="M657.58,2.424L643.035,2.424L643.035,-21.818L609.097,-21.818L609.097,2.424L594.552,2.424L594.552,-60.604L657.58,-60.604L657.58,2.424ZM643.035,-36.363L643.035,-46.059L609.097,-46.059L609.097,-36.363L643.035,-36.363Z" style="fill:white;"/>
                            <path d="M751.869,-12.121L751.869,2.424L688.841,2.424L688.841,-60.604L703.386,-60.604L703.386,-12.121L751.869,-12.121Z" style="fill:white;"/>
                        </g>
                    </g>
                </g>
            </g>
        </g>
    </g>
</svg>
