<?xml version="1.0" encoding="UTF-8" standalone="no"?>
<!DOCTYPE svg PUBLIC "-//W3C//DTD SVG 1.1//EN" "http://www.w3.org/Graphics/SVG/1.1/DTD/svg11.dtd">
<svg width="100%" height="100%" viewBox="0 0 497 324" version="1.1" xmlns="http://www.w3.org/2000/svg" xmlns:xlink="http://www.w3.org/1999/xlink" xml:space="preserve" xmlns:serif="http://www.serif.com/" style="fill-rule:evenodd;clip-rule:evenodd;stroke-linecap:round;stroke-linejoin:round;stroke-miterlimit:1.5;">
    <g transform="matrix(1,0,0,1,-733.565511,-1006.207349)">
        <g transform="matrix(1,0,-0.122748,1,154.643066,0)">
            <g transform="matrix(1,0,0,1,31.496063,0)">
                <rect x="944.882" y="1228.346" width="31.496" height="31.496" style="fill:none;stroke:rgb(0,140,246);stroke-width:1.06px;"/>
            </g>
        </g>
        <g transform="matrix(1,0,-0.122748,1,154.643066,0)">
            <g transform="matrix(1,0,0,1,31.496063,-31.496063)">
                <rect x="944.882" y="1228.346" width="31.496" height="31.496" style="fill:none;stroke:rgb(0,140,246);stroke-width:1.06px;"/>
            </g>
        </g>
        <g transform="matrix(1,0,-0.122748,1,154.643066,0)">
            <g transform="matrix(1,0,0,1,31.496063,-62.992126)">
                <rect x="944.882" y="1228.346" width="31.496" height="31.496" style="fill:none;stroke:rgb(0,140,246);stroke-width:1.06px;"/>
            </g>
        </g>
        <g transform="matrix(1,0,-0.122748,1,154.643066,0)">
            <g transform="matrix(1,0,0,1,31.496063,-125.984252)">
                <rect x="944.882" y="1228.346" width="31.496" height="31.496" style="fill:none;stroke:rgb(0,140,246);stroke-width:1.06px;"/>
            </g>
        </g>
        <g transform="matrix(1,0,-0.122748,1,154.643066,0)">
            <g transform="matrix(1,0,0,1,31.496063,-157.480315)">
                <rect x="944.882" y="1228.346" width="31.496" height="31.496" style="fill:none;stroke:rgb(0,140,246);stroke-width:1.06px;"/>
            </g>
        </g>
        <g transform="matrix(1,0,-0.122748,1,154.643066,0)">
            <g transform="matrix(1,0,0,1,31.496063,-188.976378)">
                <rect x="944.882" y="1228.346" width="31.496" height="31.496" style="fill:none;stroke:rgb(0,140,246);stroke-width:1.06px;"/>
            </g>
        </g>
        <g transform="matrix(1,0,-0.122748,1,154.643066,0)">
            <g transform="matrix(1,0,0,1,62.992126,-125.984252)">
                <rect x="944.882" y="1228.346" width="31.496" height="31.496" style="fill:none;stroke:rgb(0,140,246);stroke-width:1.06px;"/>
            </g>
        </g>
        <g transform="matrix(1,0,-0.122748,1,154.643066,0)">
            <g transform="matrix(1,0,0,1,94.488189,0)">
                <rect x="944.882" y="1228.346" width="31.496" height="31.496" style="fill:none;stroke:rgb(0,140,246);stroke-width:1.06px;"/>
            </g>
        </g>
        <g transform="matrix(1,0,-0.122748,1,154.643066,0)">
            <g transform="matrix(1,0,0,1,94.488189,-31.496063)">
                <rect x="944.882" y="1228.346" width="31.496" height="31.496" style="fill:none;stroke:rgb(0,140,246);stroke-width:1.06px;"/>
            </g>
        </g>
        <g transform="matrix(1,0,-0.122748,1,154.643066,0)">
            <g transform="matrix(1,0,0,1,94.488189,-62.992126)">
                <rect x="944.882" y="1228.346" width="31.496" height="31.496" style="fill:none;stroke:rgb(0,140,246);stroke-width:1.06px;"/>
            </g>
        </g>
        <g transform="matrix(1,0,-0.122748,1,154.643066,0)">
            <g transform="matrix(1,0,0,1,94.488189,-125.984252)">
                <rect x="944.882" y="1228.346" width="31.496" height="31.496" style="fill:none;stroke:rgb(0,140,246);stroke-width:1.06px;"/>
            </g>
        </g>
        <g transform="matrix(1,0,-0.122748,1,154.643066,0)">
            <g transform="matrix(1,0,0,1,94.488189,-157.480315)">
                <rect x="944.882" y="1228.346" width="31.496" height="31.496" style="fill:none;stroke:rgb(0,140,246);stroke-width:1.06px;"/>
            </g>
        </g>
        <g transform="matrix(1,0,-0.122748,1,154.643066,0)">
            <g transform="matrix(1,0,0,1,94.488189,-188.976378)">
                <rect x="944.882" y="1228.346" width="31.496" height="31.496" style="fill:none;stroke:rgb(0,140,246);stroke-width:1.06px;"/>
            </g>
        </g>
        <g transform="matrix(1,0,-0.122748,1,154.643066,0)">
            <g transform="matrix(1,0,0,1,125.984252,0)">
                <rect x="944.882" y="1228.346" width="31.496" height="31.496" style="fill:none;stroke:rgb(0,140,246);stroke-width:1.06px;"/>
            </g>
        </g>
        <g transform="matrix(1,0,-0.122748,1,154.643066,0)">
            <g transform="matrix(1,0,0,1,125.984252,-31.496063)">
                <rect x="944.882" y="1228.346" width="31.496" height="31.496" style="fill:none;stroke:rgb(0,140,246);stroke-width:1.06px;"/>
            </g>
        </g>
        <g transform="matrix(1,0,-0.122748,1,154.643066,0)">
            <g transform="matrix(1,0,0,1,125.984252,-62.992126)">
                <rect x="944.882" y="1228.346" width="31.496" height="31.496" style="fill:none;stroke:rgb(0,140,246);stroke-width:1.06px;"/>
            </g>
        </g>
        <g transform="matrix(1,0,-0.122748,1,154.643066,0)">
            <g transform="matrix(1,0,0,1,157.480315,0)">
                <rect x="944.882" y="1228.346" width="31.496" height="31.496" style="fill:none;stroke:rgb(0,140,246);stroke-width:1.06px;"/>
            </g>
        </g>
        <g transform="matrix(1,0,-0.122748,1,154.643066,0)">
            <g transform="matrix(1,0,0,1,157.480315,-31.496063)">
                <rect x="944.882" y="1228.346" width="31.496" height="31.496" style="fill:none;stroke:rgb(0,140,246);stroke-width:1.06px;"/>
            </g>
        </g>
        <g transform="matrix(1,0,-0.122748,1,154.643066,0)">
            <g transform="matrix(1,0,0,1,157.480315,-62.992126)">
                <rect x="944.882" y="1228.346" width="31.496" height="31.496" style="fill:none;stroke:rgb(0,140,246);stroke-width:1.06px;"/>
            </g>
        </g>
        <g transform="matrix(1,0,-0.122748,1,154.643066,0)">
            <g transform="matrix(1,0,0,1,157.480315,-94.488189)">
                <rect x="944.882" y="1228.346" width="31.496" height="31.496" style="fill:none;stroke:rgb(0,140,246);stroke-width:1.06px;"/>
            </g>
        </g>
        <g transform="matrix(1,0,-0.122748,1,154.643066,0)">
            <g transform="matrix(1,0,0,1,157.480315,-125.984252)">
                <rect x="944.882" y="1228.346" width="31.496" height="31.496" style="fill:none;stroke:rgb(0,140,246);stroke-width:1.06px;"/>
            </g>
        </g>
        <g transform="matrix(1,0,-0.122748,1,154.643066,0)">
            <g transform="matrix(1,0,0,1,157.480315,-157.480315)">
                <rect x="944.882" y="1228.346" width="31.496" height="31.496" style="fill:none;stroke:rgb(0,140,246);stroke-width:1.06px;"/>
            </g>
        </g>
        <g transform="matrix(1,0,-0.122748,1,154.643066,0)">
            <g transform="matrix(1,0,0,1,157.480315,-188.976378)">
                <rect x="944.882" y="1228.346" width="31.496" height="31.496" style="fill:none;stroke:rgb(0,140,246);stroke-width:1.06px;"/>
            </g>
        </g>
        <g transform="matrix(1,0,-0.122748,1,154.643066,0)">
            <g transform="matrix(1,0,0,1,157.480315,-220.472441)">
                <rect x="944.882" y="1228.346" width="31.496" height="31.496" style="fill:none;stroke:rgb(0,140,246);stroke-width:1.06px;"/>
            </g>
        </g>
        <g transform="matrix(1,0,-0.122748,1,154.643066,0)">
            <g transform="matrix(1,0,0,1,188.976378,0)">
                <rect x="944.882" y="1228.346" width="31.496" height="31.496" style="fill:none;stroke:rgb(0,140,246);stroke-width:1.06px;"/>
            </g>
        </g>
        <g transform="matrix(1,0,-0.122748,1,154.643066,0)">
            <g transform="matrix(1,0,0,1,188.976378,-31.496063)">
                <rect x="944.882" y="1228.346" width="31.496" height="31.496" style="fill:none;stroke:rgb(0,140,246);stroke-width:1.06px;"/>
            </g>
        </g>
        <g transform="matrix(1,0,-0.122748,1,154.643066,0)">
            <g transform="matrix(1,0,0,1,188.976378,-62.992126)">
                <rect x="944.882" y="1228.346" width="31.496" height="31.496" style="fill:none;stroke:rgb(0,140,246);stroke-width:1.06px;"/>
            </g>
        </g>
        <g transform="matrix(1,0,-0.122748,1,154.643066,0)">
            <g transform="matrix(1,0,0,1,188.976378,-125.984252)">
                <rect x="944.882" y="1228.346" width="31.496" height="31.496" style="fill:none;stroke:rgb(0,140,246);stroke-width:1.06px;"/>
            </g>
        </g>
        <g transform="matrix(1,0,-0.122748,1,154.643066,0)">
            <g transform="matrix(1,0,0,1,188.976378,-157.480315)">
                <rect x="944.882" y="1228.346" width="31.496" height="31.496" style="fill:none;stroke:rgb(0,140,246);stroke-width:1.06px;"/>
            </g>
        </g>
        <g transform="matrix(1,0,-0.122748,1,154.643066,0)">
            <g transform="matrix(1,0,0,1,188.976378,-188.976378)">
                <rect x="944.882" y="1228.346" width="31.496" height="31.496" style="fill:none;stroke:rgb(0,140,246);stroke-width:1.06px;"/>
            </g>
        </g>
        <g transform="matrix(1,0,-0.122748,1,154.643066,0)">
            <g transform="matrix(1,0,0,1,188.976378,-220.472441)">
                <rect x="944.882" y="1228.346" width="31.496" height="31.496" style="fill:none;stroke:rgb(0,140,246);stroke-width:1.06px;"/>
            </g>
        </g>
        <g transform="matrix(1,0,-0.025,1,31.496063,0)">
            <path d="M1196.85,1259.843L1165.354,1259.843L1174.803,1165.354L1143.307,1165.354L1146.457,1133.858L1177.953,1133.858L1190.551,1007.874L1222.047,1007.874L1196.85,1259.843Z" style="fill:rgb(97,57,124);"/>
        </g>
        <g transform="matrix(1,0,-0.025,1,31.496063,0)">
            <path d="M976.378,1259.843L944.882,1259.843L970.079,1007.874L1127.559,1007.874L1111.811,1165.354L1048.819,1165.354L1039.37,1259.843L1007.874,1259.843L1017.323,1165.354L985.827,1165.354L976.378,1259.843ZM998.425,1039.37L988.976,1133.858L1083.465,1133.858L1092.913,1039.37L1061.417,1039.37L1055.118,1102.362L1023.622,1102.362L1029.921,1039.37L998.425,1039.37Z" style="fill:rgb(97,57,124);"/>
        </g>
        <path d="M1228.346,1290.117L944.882,1290.117L944.882,1303.937L944.882,1275.591L944.882,1290.117L1228.346,1290.117L1228.346,1275.591L1228.346,1303.937" style="fill:none;stroke:black;stroke-width:3.33px;"/>
        <g transform="matrix(0.359098,0,0,0.359098,419.247521,669.528406)">
            <g transform="matrix(99.294197,0,0,99.294197,1339.471014,1142.175106)">
            </g>
            <text x="877.722px" y="1142.175px" style="font-family:'SquareOne-Bold', 'Square One';font-weight:700;font-size:99.294px;fill:rgb(97,57,124);">2<tspan x="972.011px 1017.817px 1112.106px 1177.305px 1271.594px " y="1142.175px 1142.175px 1142.175px 1142.175px 1142.175px ">,4 cm</tspan></text>
        </g>
        <g transform="matrix(0.359098,0,0,0.359098,643.015946,915.546745)">
            <g transform="matrix(99.294197,0,0,99.294197,1339.471014,1142.175106)">
            </g>
            <text x="877.722px" y="1142.175px" style="font-family:'SquareOne-Bold', 'Square One';font-weight:700;font-size:99.294px;fill:rgb(97,57,124);">2<tspan x="972.011px 1017.817px 1112.106px 1177.305px 1271.594px " y="1142.175px 1142.175px 1142.175px 1142.175px 1142.175px ">,7 cm</tspan></text>
        </g>
        <path d="M912.185,1259.843L912.185,1007.874L927.559,1007.874L897.638,1007.874L912.185,1007.874L912.185,1259.843L927.559,1259.843L897.638,1259.843" style="fill:none;stroke:black;stroke-width:3.33px;"/>
    </g>
</svg>
