<?xml version="1.0" encoding="UTF-8" standalone="no"?>
<!DOCTYPE svg PUBLIC "-//W3C//DTD SVG 1.1//EN" "http://www.w3.org/Graphics/SVG/1.1/DTD/svg11.dtd">
<svg width="100%" height="100%" viewBox="0 0 1258 252" version="1.1" xmlns="http://www.w3.org/2000/svg" xmlns:xlink="http://www.w3.org/1999/xlink" xml:space="preserve" xmlns:serif="http://www.serif.com/" style="fill-rule:evenodd;clip-rule:evenodd;stroke-linejoin:round;stroke-miterlimit:2;">
    <g transform="matrix(1,0,0,1,-944.88189,-1007.874016)">
        <g transform="matrix(1,0,-0.025,1,31.496063,0)">
            <path d="M1196.85,1259.843L1165.354,1259.843L1174.803,1165.354L1143.307,1165.354L1146.457,1133.858L1177.953,1133.858L1190.551,1007.874L1222.047,1007.874L1196.85,1259.843Z"/>
            <path d="M976.378,1259.843L944.882,1259.843L970.079,1007.874L1127.559,1007.874L1111.811,1165.354L1048.819,1165.354L1039.37,1259.843L1007.874,1259.843L1017.323,1165.354L985.827,1165.354L976.378,1259.843ZM998.425,1039.37L988.976,1133.858L1083.465,1133.858L1092.913,1039.37L1061.417,1039.37L1055.118,1102.362L1023.622,1102.362L1029.921,1039.37L998.425,1039.37Z"/>
        </g>
        <g transform="matrix(1,0,0,1,317.384805,-96.894155)">
            <g transform="matrix(99.294197,0,0,99.294197,1892.601556,1259.84252)">
            </g>
            <text x="944.882px" y="1259.843px" style="font-family:'SquareOne-Bold', 'Square One';font-weight:700;font-size:99.294px;">P<tspan x="1039.171px 1133.46px 1227.749px 1322.038px 1416.328px 1510.617px 1541.857px 1636.146px 1730.436px 1824.725px " y="1259.843px 1259.843px 1259.843px 1259.843px 1259.843px 1259.843px 1259.843px 1259.843px 1259.843px 1259.843px ">URPLE HEAL</tspan></text>
        </g>
    </g>
</svg>
